<?xml version="1.0" encoding="UTF-8" standalone="no"?>
<!-- Created with Inkscape (http://www.inkscape.org/) -->

<svg
   xmlns:dc="http://purl.org/dc/elements/1.1/"
   xmlns:cc="http://creativecommons.org/ns#"
   xmlns:rdf="http://www.w3.org/1999/02/22-rdf-syntax-ns#"
   xmlns:svg="http://www.w3.org/2000/svg"
   xmlns="http://www.w3.org/2000/svg"
   xmlns:sodipodi="http://sodipodi.sourceforge.net/DTD/sodipodi-0.dtd"
   xmlns:inkscape="http://www.inkscape.org/namespaces/inkscape"
   width="58.208332mm"
   height="58.208332mm"
   viewBox="0 0 58.208332 58.208333"
   version="1.1"
   id="svg4507"
   inkscape:version="0.92.1 r15371"
   sodipodi:docname="logo.svg">
  <defs
     id="defs4501" />
  <sodipodi:namedview
     id="base"
     pagecolor="#ffffff"
     bordercolor="#666666"
     borderopacity="1.0"
     inkscape:pageopacity="0.0"
     inkscape:pageshadow="2"
     inkscape:zoom="1.979899"
     inkscape:cx="169.9051"
     inkscape:cy="6.194792"
     inkscape:document-units="mm"
     inkscape:current-layer="layer1"
     showgrid="false"
     inkscape:window-width="1920"
     inkscape:window-height="1017"
     inkscape:window-x="1912"
     inkscape:window-y="517"
     inkscape:window-maximized="1" />
  <metadata
     id="metadata4504">
    <rdf:RDF>
      <cc:Work
         rdf:about="">
        <dc:format>image/svg+xml</dc:format>
        <dc:type
           rdf:resource="http://purl.org/dc/dcmitype/StillImage" />
        <dc:title></dc:title>
      </cc:Work>
    </rdf:RDF>
  </metadata>
  <g
     inkscape:label="Layer 1"
     inkscape:groupmode="layer"
     id="layer1"
     transform="translate(116.85993,-168.70378)">
    <g
       id="g5071">
      <path
         inkscape:connector-curvature="0"
         id="path5063"
         d="m -87.58515,174.05114 c -1.676281,-0.0109 -3.366648,0.3376 -4.852018,1.03418 -5.019615,2.35397 -7.695382,7.89544 -6.19301,13.06341 0.577523,1.98662 1.433239,3.50083 2.850886,5.05024 l 0.153405,0.16719 -2.997399,9.31968 c -0.897979,2.79178 -1.714334,5.44238 -2.309674,7.47539 -0.29766,1.01651 -0.54009,1.87803 -0.71185,2.53547 -0.0859,0.32871 -0.15438,0.60507 -0.20512,0.83769 -0.0507,0.23261 -0.0982,0.32871 -0.1,0.7084 -0.009,1.86657 1.28709,3.30535 2.933628,4.43836 1.646539,1.13301 3.811973,2.01201 6.242995,2.49582 l 1.715014,0.34128 v -0.18616 c 2.819367,0.34857 5.718246,0.32606 8.35617,-0.20511 3.172145,-0.63873 5.962839,-1.78966 7.690844,-3.70236 0.884688,-0.97925 1.457607,-2.05026 1.449576,-3.18527 -0.0026,-0.37727 -0.05092,-0.47261 -0.101699,-0.70496 -0.05083,-0.23237 -0.119173,-0.50907 -0.205111,-0.83769 -0.171867,-0.65726 -0.412507,-1.519 -0.710138,-2.53547 -0.595255,-2.03291 -1.412459,-4.68363 -2.309661,-7.47539 l -2.993951,-9.31968 0.153405,-0.16719 c 2.643899,-2.88968 3.670325,-6.50725 3.099092,-9.85228 -0.571242,-3.34503 -2.741627,-6.39593 -6.194742,-8.18037 -1.422387,-0.73502 -3.084381,-1.10436 -4.760672,-1.11518 z m -0.927313,4.77618 c 3.154663,-0.35752 6.372831,1.66837 7.137561,5.11747 0.680743,3.07027 -1.486094,6.66481 -4.546939,7.51504 -1.232137,0.34224 -2.842884,0.28783 -3.97987,-0.11721 -5.030416,-1.792 -5.961004,-8.20573 -1.651237,-11.32772 0.944328,-0.68406 1.988934,-1.06841 3.040485,-1.18758 z m -2.902594,17.04328 c 0.101982,0.0286 0.168354,0.0418 0.275781,0.0741 2.200354,0.6622 4.570069,0.6622 6.770423,0 0.104135,-0.0313 0.168178,-0.0444 0.267168,-0.0724 0.174364,0.51551 0.37561,1.12416 0.634297,1.91496 0.599844,1.83372 1.38368,4.27022 2.159706,6.71354 0.776035,2.44333 1.545716,4.89509 2.120073,6.75836 0.287175,0.93164 0.52507,1.7171 0.689453,2.2752 0.04933,0.16733 0.07713,0.26671 0.112034,0.38954 -0.128942,0.14968 -0.305531,0.33671 -0.548112,0.54639 -0.560043,0.48409 -1.340252,0.99778 -1.847734,1.21516 -0.334353,0.14323 -1.989834,0.61061 -3.183547,0.82907 -3.592356,0.65746 -8.276833,0.24044 -10.760637,-0.82734 -0.533683,-0.22944 -1.306347,-0.74112 -1.856356,-1.22378 -0.244064,-0.21419 -0.42157,-0.40785 -0.54467,-0.55674 0.03627,-0.12909 0.06742,-0.24066 0.120656,-0.42228 0.163721,-0.55871 0.401758,-1.34389 0.687732,-2.27348 0.571939,-1.85918 1.338443,-4.30082 2.111451,-6.73422 0.772999,-2.43342 1.552396,-4.86 2.151093,-6.68598 0.260125,-0.79336 0.466198,-1.40534 0.641189,-1.92013 z"
         style="color:#000000;font-style:normal;font-variant:normal;font-weight:normal;font-stretch:normal;font-size:medium;line-height:normal;font-family:sans-serif;font-variant-ligatures:normal;font-variant-position:normal;font-variant-caps:normal;font-variant-numeric:normal;font-variant-alternates:normal;font-feature-settings:normal;text-indent:0;text-align:start;text-decoration:none;text-decoration-line:none;text-decoration-style:solid;text-decoration-color:#000000;letter-spacing:normal;word-spacing:normal;text-transform:none;writing-mode:lr-tb;direction:ltr;text-orientation:mixed;dominant-baseline:auto;baseline-shift:baseline;text-anchor:start;white-space:normal;shape-padding:0;clip-rule:nonzero;display:inline;overflow:visible;visibility:visible;opacity:1;isolation:auto;mix-blend-mode:normal;color-interpolation:sRGB;color-interpolation-filters:linearRGB;solid-color:#000000;solid-opacity:1;vector-effect:none;fill:#000000;fill-opacity:1;fill-rule:nonzero;stroke:none;stroke-width:2.87077165;stroke-linecap:butt;stroke-linejoin:miter;stroke-miterlimit:4;stroke-dasharray:none;stroke-dashoffset:0;stroke-opacity:1;color-rendering:auto;image-rendering:auto;shape-rendering:auto;text-rendering:auto;enable-background:accumulate" />
      <rect
         y="168.70378"
         x="-116.85993"
         height="58.208332"
         width="58.208332"
         id="rect5067"
         style="opacity:1;vector-effect:none;fill:none;fill-opacity:1;fill-rule:nonzero;stroke:none;stroke-width:3.25300002;stroke-linecap:square;stroke-linejoin:miter;stroke-miterlimit:4;stroke-dasharray:none;stroke-dashoffset:0;stroke-opacity:1;paint-order:fill markers stroke" />
    </g>
  </g>
</svg>
